<?xml version="1.0" encoding="UTF-8" standalone="no"?>
<!-- Created with Inkscape (http://www.inkscape.org/) -->

<svg
   width="210mm"
   height="297mm"
   viewBox="0 0 210 297"
   version="1.1"
   id="svg1"
   inkscape:version="1.4.2 (f4327f4, 2025-05-13)"
   sodipodi:docname="beee.svg"
   xmlns:inkscape="http://www.inkscape.org/namespaces/inkscape"
   xmlns:sodipodi="http://sodipodi.sourceforge.net/DTD/sodipodi-0.dtd"
   xmlns="http://www.w3.org/2000/svg"
   xmlns:svg="http://www.w3.org/2000/svg">
  <sodipodi:namedview
     id="namedview1"
     pagecolor="#ffffff"
     bordercolor="#999999"
     borderopacity="1"
     inkscape:showpageshadow="0"
     inkscape:pageopacity="0"
     inkscape:pagecheckerboard="0"
     inkscape:deskcolor="#d1d1d1"
     inkscape:document-units="mm"
     inkscape:zoom="0.78127806"
     inkscape:cx="312.94876"
     inkscape:cy="545.90039"
     inkscape:window-width="1920"
     inkscape:window-height="1057"
     inkscape:window-x="1432"
     inkscape:window-y="1100"
     inkscape:window-maximized="1"
     inkscape:current-layer="layer1" />
  <defs
     id="defs1" />
  <g
     inkscape:label="Vrstva 1"
     inkscape:groupmode="layer"
     id="layer1">
    <g
       id="g11"
       transform="matrix(0.87652361,0.2767268,-0.26990053,0.89869247,12.901045,-24.768779)">
      <path
         style="font-variation-settings:normal;fill:#f2f2f2;fill-opacity:1;stroke:#6c6c6c;stroke-width:1.865;stroke-linecap:round;stroke-linejoin:round;stroke-miterlimit:4;stroke-dasharray:none;stroke-dashoffset:0;stroke-opacity:1;stop-color:#000000"
         d="m 137.46954,111.7426 c -0.19921,-4.16344 0.27721,-8.37197 0,-12.530219 -0.64398,-9.659671 -3.4029,-19.770384 0.33865,-29.124273 3.18853,-7.971311 12.86568,-15.916761 21.67389,-15.916761 2.94189,0 5.06867,-0.342834 7.78905,0.677309 0.85216,0.319559 1.58445,0.896041 2.37058,1.354617 4.32457,2.522664 5.84942,4.34073 7.4504,9.143671 0.61293,1.838791 0.17222,1.727949 0.33866,3.725199 0.057,0.684281 0.30256,1.346226 0.33865,2.031928 0.25753,4.893046 -0.69753,12.673193 -2.70924,17.271378 -1.68748,3.857107 -3.93215,7.569552 -6.09578,11.175592 -1.83282,3.054709 -3.85213,6.106189 -5.07981,9.482319 -0.19671,0.54095 -0.15664,1.14721 -0.33866,1.69328 -0.15964,0.47893 -0.51766,0.87569 -0.67731,1.35462 -0.23706,0.71117 0.23706,1.6594 0,2.37058 -0.38913,1.16741 -0.33865,0.25086 -0.33865,1.01596"
         id="path9-1" />
      <path
         style="font-variation-settings:normal;fill:none;fill-opacity:1;stroke:#5e5e5e;stroke-width:1.665;stroke-linecap:round;stroke-linejoin:round;stroke-miterlimit:4;stroke-dasharray:none;stroke-dashoffset:0;stroke-opacity:1;stop-color:#000000"
         d="m 148.98379,110.72665 c 0.9492,-3.6078 -0.16402,-7.09053 -1.01596,-10.49829 -0.0548,-0.21903 0.0714,-0.463129 0,-0.677309 -0.22408,-0.67225 -1.01596,-1.97975 -1.01596,-2.70924"
         id="path10-7" />
      <path
         style="font-variation-settings:normal;fill:none;fill-opacity:1;stroke:#626262;stroke-width:1.765;stroke-linecap:round;stroke-linejoin:round;stroke-miterlimit:4;stroke-dasharray:none;stroke-dashoffset:0;stroke-opacity:1;stop-color:#000000"
         d="m 154.74092,111.0653 c 0,-0.45154 0.45154,-1.35462 0,-1.35462 -0.45154,0 -0.10952,1.79268 0,1.35462 0.8717,-3.48679 -0.14086,-1.67979 0.67731,-3.7252 0.5714,-1.42852 1.27877,-2.06719 1.69327,-3.7252 0.26173,-1.04691 0.67731,-0.30605 0.67731,-1.01596"
         id="path11-1" />
    </g>
    <g
       id="g12"
       transform="matrix(0.93213518,-0.26872917,0.26063847,0.90390395,-27.789707,41.110905)">
      <path
         style="font-variation-settings:normal;opacity:1;fill:#f2f2f2;fill-opacity:1;stroke:#6c6c6c;stroke-width:1.865;stroke-linecap:round;stroke-linejoin:round;stroke-miterlimit:4;stroke-dasharray:none;stroke-dashoffset:0;stroke-opacity:1;stop-color:#000000;stop-opacity:1"
         d="m 95.500568,115.81983 c -0.199207,-4.16344 0.277217,-8.37197 0,-12.53022 -0.643977,-9.659671 -3.402899,-19.770384 0.338656,-29.124273 3.188526,-7.971311 12.865676,-15.916761 21.673886,-15.916761 2.94189,0 5.06867,-0.342834 7.78905,0.677309 0.85216,0.319559 1.58445,0.896041 2.37058,1.354617 4.32457,2.522664 5.84942,4.34073 7.4504,9.143671 0.61293,1.838791 0.17222,1.727949 0.33866,3.725199 0.057,0.684281 0.30256,1.346226 0.33865,2.031928 0.25753,4.893046 -0.69753,12.673193 -2.70924,17.271378 -1.68748,3.857107 -3.93215,7.569552 -6.09578,11.175592 -1.83282,3.05471 -3.85213,6.10619 -5.07981,9.48232 -0.19671,0.54095 -0.15664,1.14721 -0.33866,1.69328 -0.15964,0.47893 -0.51766,0.87569 -0.67731,1.35462 -0.23706,0.71117 0.23706,1.6594 0,2.37058 -0.38913,1.16741 -0.33865,0.25086 -0.33865,1.01596"
         id="path9" />
      <path
         style="font-variation-settings:normal;opacity:1;fill:none;fill-opacity:1;stroke:#5e5e5e;stroke-width:1.665;stroke-linecap:round;stroke-linejoin:round;stroke-miterlimit:4;stroke-dasharray:none;stroke-dashoffset:0;stroke-opacity:1;stop-color:#000000;stop-opacity:1"
         d="m 107.01482,114.80388 c 0.9492,-3.6078 -0.16402,-7.09053 -1.01596,-10.49829 -0.0548,-0.21903 0.0714,-0.46313 0,-0.67731 -0.22408,-0.67225 -1.01596,-1.97975 -1.01596,-2.70924"
         id="path10" />
      <path
         style="font-variation-settings:normal;opacity:1;fill:none;fill-opacity:1;stroke:#626262;stroke-width:1.765;stroke-linecap:round;stroke-linejoin:round;stroke-miterlimit:4;stroke-dasharray:none;stroke-dashoffset:0;stroke-opacity:1;stop-color:#000000;stop-opacity:1"
         d="m 112.77195,115.14253 c 0,-0.45154 0.45154,-1.35462 0,-1.35462 -0.45154,0 -0.10952,1.79268 0,1.35462 0.8717,-3.48679 -0.14086,-1.67979 0.67731,-3.7252 0.5714,-1.42852 1.27877,-2.06719 1.69327,-3.7252 0.26173,-1.04691 0.67731,-0.30605 0.67731,-1.01596"
         id="path11" />
    </g>
    <path
       id="path3"
       style="font-variation-settings:normal;opacity:1;fill:#ffdd55;fill-opacity:1;stroke:#686852;stroke-width:1.865;stroke-linecap:round;stroke-linejoin:round;stroke-miterlimit:4;stroke-dasharray:none;stroke-dashoffset:0;stroke-opacity:1;stop-color:#000000;stop-opacity:1"
       d="M 106.64259 115.26945 C 98.679268 115.11397 90.857726 117.27447 83.647607 120.56112 L 81.277209 122.25404 C 71.195909 128.01478 64.344672 131.54213 58.587122 142.23473 C 57.413764 144.41382 57.004715 146.94905 56.555204 149.34644 C 55.921337 152.72704 55.631331 156.0493 55.878243 159.50603 C 56.026936 161.58776 56.719782 163.71033 57.571163 165.60229 C 58.33796 167.30629 59.041576 169.04481 59.942078 170.68209 C 61.87221 174.19142 66.289534 177.61657 69.762667 179.48672 C 78.776777 184.34047 92.764596 184.61143 102.61234 182.87359 C 107.35705 182.03629 112.19266 181.09202 116.83576 179.82572 C 123.4314 178.02691 129.63541 174.85501 135.46202 171.35905 C 137.14557 170.34892 139.41925 169.23451 140.88029 167.97269 C 143.39449 165.80134 145.94234 163.11695 147.65352 160.1835 C 149.88591 156.35654 150.7014 152.06182 150.7014 147.65352 C 150.7014 141.50268 148.78048 136.19364 144.94412 131.39818 C 144.59152 130.95744 144.33994 130.42926 143.92817 130.04323 C 139.13069 125.54559 141.02947 127.48882 137.49393 124.96343 C 134.86906 123.08853 135.10981 122.92491 132.41414 121.57708 C 126.35958 118.5498 116.79656 116.19017 110.06253 115.48132 C 108.9205 115.36111 107.7802 115.29166 106.64259 115.26945 z " />
    <path
       style="font-variation-settings:normal;opacity:1;fill:#4d4d4d;fill-opacity:1;stroke:#4f4f4f;stroke-width:1.095;stroke-linecap:round;stroke-linejoin:round;stroke-miterlimit:4;stroke-dasharray:none;stroke-dashoffset:0;stroke-opacity:1;stop-color:#000000;stop-opacity:1"
       d="m 69.036516,152.97897 c -0.137858,-0.59233 0.137856,-1.92506 -0.413574,-1.77698 -0.551426,0.14809 0.275716,2.36931 0.413574,1.77698 0.300915,-1.29294 0,-2.66546 0,-3.99821 0,-2.48075 0.555704,-1.04117 1.240713,-1.77698 0.137856,-0.14808 0.275713,-0.59233 0.41357,-0.44424 0.09748,0.10468 -0.09748,0.33953 0,0.44424 0.194961,0.20943 0.632186,-0.20942 0.827143,0 0.206787,0.22212 0.206787,0.66636 0.413574,0.88849 0.09748,0.10468 0.413569,-0.14808 0.413569,0 0,0.20941 -0.326384,0.25694 -0.413569,0.44425 -0.119375,0.25646 -0.09555,5.56993 0,5.77518 0.190643,0.40959 0.696811,0.72425 0.413569,1.33275 -0.08718,0.18731 -0.326384,0.25693 -0.413569,0.44424 -0.123304,0.2649 0.194957,0.67908 0,0.88849 -0.391664,0.42071 -3.493269,0.0475 -3.722144,-0.44424 -0.508391,-1.0922 0.514841,-2.37983 0.827144,-3.55397 z"
       id="path4" />
    <path
       style="font-variation-settings:normal;opacity:1;vector-effect:none;fill:#4d4d4d;fill-opacity:1;stroke:#505050;stroke-width:1.20183;stroke-linecap:round;stroke-linejoin:round;stroke-miterlimit:4;stroke-dasharray:none;stroke-dashoffset:0;stroke-opacity:1;-inkscape-stroke:none;stop-color:#000000;stop-opacity:1"
       d="m 77.078243,153.6478 c 0.150963,-0.81475 1.207713,-2.28127 0.45289,-2.44421 -0.754818,-0.16296 -0.639588,3.25026 -0.45289,2.44421 0.373394,-1.61215 0.41894,-3.31197 0.905785,-4.88844 0.601893,-1.94901 1.3816,-2.43184 3.170252,-1.46652 0.135027,0.0729 0.346142,-0.11519 0.452892,0 0.106746,0.11519 -0.106746,0.37361 0,0.48883 0.106746,0.11519 0.346147,-0.11519 0.452895,0 0.428328,0.46234 0.240604,3.1622 0,3.42192 -0.106746,0.11519 -0.346147,-0.11519 -0.452895,0 -0.673688,0.72715 1.227213,4.54148 0.452895,5.37725 -0.106746,0.11519 -0.346147,-0.11519 -0.452895,0 -0.937051,1.01144 1.43194,-0.0395 -0.452892,0.97769 -0.882918,0.47651 -2.423564,0.3568 -2.717359,-0.48883 -0.403691,-1.16197 -0.905788,-2.28128 -1.358678,-3.4219 z"
       id="path5" />
    <path
       style="font-variation-settings:normal;opacity:1;fill:#666666;fill-opacity:1;stroke:none;stroke-width:1.465;stroke-linecap:round;stroke-linejoin:round;stroke-miterlimit:4;stroke-dasharray:none;stroke-dashoffset:0;stroke-opacity:1;stop-color:#000000;stop-opacity:1"
       d="m 85.340935,120.561 c 0.451538,0.22577 1.128847,1.12885 1.354616,0.67731 0.225769,-0.45154 -1.748829,-0.99268 -1.354616,-0.67731 0.953468,0.76278 2.060392,1.31375 3.047889,2.03193 1.230368,0.89481 2.077315,2.2542 3.047891,3.38654 0.311682,0.36363 0.7503,0.61747 1.015963,1.01597 0.198014,0.29702 0.165293,0.70391 0.338654,1.01596 0.395327,0.71159 0.935807,1.33391 1.354619,2.03193 0.664244,1.10707 0.858488,2.22891 1.354619,3.38654 0.829019,1.93438 1.643422,3.81804 2.370579,5.75713 0.384638,1.0257 1.006443,2.00336 1.354619,3.04789 0.403476,1.21043 0.665266,2.49775 1.015962,3.7252 0.16701,0.58451 0.57737,1.09364 0.67731,1.69327 0.0742,0.4454 -0.0742,0.90922 0,1.35462 0.16761,1.00565 0.86321,1.97859 1.01596,3.04789 0.24221,1.69541 0.26944,3.44834 0.67731,5.07982 0.10952,0.43806 -0.10951,0.91656 0,1.35462 0.0612,0.24488 0.27744,0.43242 0.33866,0.6773 0.10951,0.43806 -0.14279,0.92625 0,1.35462 0.0505,0.15145 0.29993,0.18378 0.33865,0.33866 0.18666,0.74664 -0.1511,1.61508 0,2.37058 0.24538,1.2269 0.55487,2.42794 0.33866,3.7252 -0.0587,0.35211 -0.27997,0.66385 -0.33866,1.01596 -0.096,0.57573 0.19003,1.46186 0,2.03193 -0.21677,0.65031 -0.25685,1.86832 -0.33865,2.03193 -0.4493,0.89859 -0.74862,2.31715 -1.01597,3.38654 -0.0547,0.21903 0.0714,0.46313 0,0.67731 -0.14481,0.43444 -0.53249,0.92018 -0.6773,1.35462 -0.22483,0.67447 -0.0236,1.40169 -0.33866,2.03193 -0.0505,0.10096 -0.25883,-0.0798 -0.33865,0 -0.17849,0.17848 -0.22577,0.45153 -0.33866,0.6773 -0.10097,0.20194 0.10097,0.47538 0,0.67731 -0.294192,0.58839 -1.354615,2.05523 -1.354615,2.37058 0,0.25242 -0.591074,0.67731 -0.338656,0.67731 1.104233,0 2.447031,-1.3801 3.386541,-1.69327 0.49596,-0.16532 1.18563,0.12691 1.69328,0 0.24488,-0.0612 0.43784,-0.25883 0.67731,-0.33865 0.38372,-0.12791 0.99575,0.17943 1.35461,0 0.14279,-0.0714 0.18721,-0.28818 0.33866,-0.33866 0.42837,-0.14279 0.90308,0 1.35462,0 1.90829,0 3.78771,0.13807 5.41847,-0.67731 0.35966,-0.17983 1.05273,-0.0368 1.35462,-0.33865 0.2833,-0.28331 0.0185,-1.71178 0.33865,-2.03193 0.0798,-0.0798 0.25883,0.0798 0.33866,0 0.22201,-0.22201 0.16898,-1.18495 0.33865,-1.35462 0.0798,-0.0798 0.25883,0.0798 0.33865,0 0.0577,-0.0577 1.32745,-2.62772 1.35462,-2.70923 0.10709,-0.32128 -0.0821,-0.68742 0,-1.01597 0.0987,-0.39486 0.5486,-0.62984 0.67731,-1.01596 0.25048,-0.75144 0.48347,-1.59523 0.67731,-2.37058 0.10951,-0.43806 -0.10952,-0.91656 0,-1.35462 0.3366,-1.3464 0.68309,-2.73237 1.01596,-4.06385 0.27433,-1.09731 0.20592,-7.77546 0,-8.80502 -0.07,-0.35004 -0.28817,-0.66258 -0.33865,-1.01596 -0.11519,-0.80633 -0.0955,-2.99576 -0.33866,-3.7252 -0.46537,-1.39613 -0.54927,-3.00244 -1.01596,-4.40251 -0.0505,-0.15145 -0.28817,-0.18721 -0.33865,-0.33866 -0.14279,-0.42836 0.10951,-0.91656 0,-1.35461 -0.79461,-3.17842 -3.25125,-7.75543 -5.07982,-10.49829 -0.75135,-1.12703 -1.22043,-2.30455 -2.03193,-3.38655 -0.3029,-0.40387 -0.32033,-0.99764 -0.67731,-1.35462 -0.17848,-0.17848 -0.49882,-0.16017 -0.67731,-0.33865 -2.02701,0.29156 -0.32033,-0.99765 -0.6773,-1.35462 -0.17849,-0.17849 -0.46729,-0.19864 -0.67731,-0.33865 -0.78151,-0.52101 -1.25042,-1.51092 -2.03193,-2.03193 -1.23015,-0.8201 -0.23948,0.0992 -1.01596,-0.67731 -0.70946,-0.70945 -3.41928,-3.91089 -4.402512,-4.40251 -0.957721,-0.47886 -2.011474,-1.17506 -3.047892,-1.69327 -0.285578,-0.14279 -0.391729,-0.53452 -0.677309,-0.67731 -0.205243,-0.10262 -0.874051,-0.19674 -1.015963,-0.33865 -0.07982,-0.0798 0.07982,-0.25884 0,-0.33866 -0.155697,-0.15569 -1.088295,-0.54415 -1.354617,-0.67731 -0.764153,-0.38207 -1.695159,0.50845 -2.370582,0.67731 -0.328543,0.0821 -0.776499,-0.23946 -1.015963,0 -0.07982,0.0798 0.07982,0.25883 0,0.33866 -0.169328,0.16932 -0.846637,-0.16933 -1.015965,0 -0.07982,0.0798 0.07982,0.25883 0,0.33865 -0.07982,0.0798 -0.237686,-0.0505 -0.338654,0 -0.188909,0.0944 -1.262988,0.92434 -1.354619,1.01596 -0.07982,0.0798 0.09801,0.28265 0,0.33866 -0.746432,0.42653 -1.580385,0.67731 -2.370579,1.01596 z"
       id="path7" />
    <path
       id="path7-8"
       style="font-variation-settings:normal;fill:#666666;fill-opacity:1;stroke:none;stroke-width:1.555;stroke-linecap:round;stroke-linejoin:round;stroke-miterlimit:4;stroke-dasharray:none;stroke-dashoffset:0;stroke-opacity:1;stop-color:#000000"
       d="m 115.44516,117.59993 c 5.38753,3.07919 -1.92385,-2.89779 -2.56074,-2.50943 -0.33048,0.20146 -0.82124,0.0155 -1.04542,0.35346 -0.0748,0.1126 -0.57104,0.24706 -0.64581,0.35967 -0.15855,0.23889 -2.24147,0.45323 -2.40002,0.69213 -0.0746,0.11256 7.01056,-1.71637 3.41754,-1.33309 -5.08282,0.54219 -4.99025,1.38311 -2.04157,0.45596 -0.18563,0.16598 -0.87521,0.0675 -2.65429,-2.17387 -0.0746,0.11256 1.48182,1.95985 1.38612,2.05345 -0.67339,0.65896 -2.79228,-0.50907 -3.52142,0.0679 -0.20612,0.0273 -0.31304,0.0801 -0.17828,0.1416 v 10e-4 l 5.2e-4,-5.2e-4 h 5.1e-4 c 0.17656,0.0805 0.35684,0.15352 0.54002,0.22066 0.26021,0.13234 0.52157,0.26632 0.70539,0.23255 0.69495,0.21057 1.40696,0.38698 2.07791,0.6475 1.349,0.52382 2.3467,1.67483 3.45043,2.54145 0.35443,0.27834 0.82917,0.39621 1.13947,0.7276 0.2313,0.24698 0.23554,0.69067 0.44286,0.96222 0.47276,0.61922 1.08667,1.0932 1.58234,1.68982 0.78615,0.94626 1.09003,2.07162 1.7079,3.13004 1.03239,1.76863 2.04492,3.48832 2.97295,5.29735 0.49088,0.9569 1.22127,1.78026 1.67638,2.76986 0.5274,1.14678 0.91645,2.4243 1.39113,3.60753 0.22604,0.56341 0.69524,0.96248 0.85369,1.56528 0.11766,0.4478 0.007,0.99257 0.12558,1.44022 0.2657,1.01103 1.07176,1.80382 1.32808,2.88768 0.40643,1.71849 0.59693,3.57265 1.16789,5.16557 0.15326,0.42773 -0.0276,1.01251 0.12557,1.44023 0.0856,0.23915 0.32565,0.36344 0.41135,0.60254 0.15326,0.42772 -0.061,1.03439 0.12557,1.44023 0.066,0.14349 0.32563,0.0911 0.37982,0.24236 0.26131,0.72897 -0.005,1.76988 0.22015,2.52077 0.36625,1.21924 0.79568,2.38873 0.69349,3.84318 -0.0277,0.39479 -0.22651,0.80306 -0.25425,1.19786 -0.0455,0.64552 0.33131,1.4879 0.18862,2.16008 -0.16277,0.76678 -0.0911,2.07603 -0.16019,2.27841 -0.379,1.11157 -0.55527,2.72381 -0.73122,3.95376 -0.036,0.2519 0.11616,0.46783 0.0625,0.72037 -0.10874,0.51224 -0.46229,1.16311 -0.57102,1.67535 -0.16881,0.79529 0.10569,1.49878 -0.1602,2.27842 -0.0426,0.12492 -0.27357,0.005 -0.3483,0.11782 -0.1671,0.25179 -0.19054,0.5584 -0.28577,0.83767 -0.0851,0.24982 0.14765,0.4701 0.0625,0.71986 -0.24819,0.72787 -1.20333,2.65624 -1.17409,2.99154 0.0234,0.26839 -0.54552,0.9254 -0.28577,0.83768 1.13625,-0.38374 2.39023,-2.3176 3.32796,-2.97708 0.49501,-0.34813 1.23193,-0.27689 1.74253,-0.58859 0.24631,-0.15025 0.42658,-0.42722 0.6656,-0.59532 0.38298,-0.26935 1.04108,-0.15523 1.39371,-0.47077 0.14031,-0.12537 0.16562,-0.37169 0.31678,-0.47801 0.42756,-0.30066 0.92959,-0.31383 1.39423,-0.47077 1.96363,-0.66314 3.91038,-1.16925 5.51284,-2.60294 0.35341,-0.31619 1.07954,-0.40548 1.36219,-0.83096 0.26526,-0.39968 -0.13949,-1.82677 0.1602,-2.27841 0.0747,-0.1126 0.27354,-0.005 0.34829,-0.11782 0.20786,-0.31322 0.0644,-1.31867 0.22325,-1.55805 0.0747,-0.11262 0.27357,-0.005 0.3483,-0.1173 0.0541,-0.0815 1.12215,-3.25565 1.14256,-3.35174 0.0805,-0.37886 -0.14801,-0.70218 -0.0941,-1.08003 0.065,-0.45411 0.50591,-0.86043 0.60255,-1.31569 0.18806,-0.88601 0.34991,-1.86416 0.47749,-2.7559 0.0719,-0.50379 -0.19761,-0.93641 -0.12558,-1.44022 0.22152,-1.54855 0.44964,-3.14275 0.6687,-4.67414 0.18054,-1.26204 -0.50914,-8.33857 -0.81649,-9.3617 -0.10455,-0.34781 -0.35817,-0.60455 -0.44287,-0.96273 -0.19331,-0.8173 -0.37562,-3.15215 -0.6935,-3.84318 -0.60831,-1.32272 -0.84363,-3.00148 -1.45365,-4.3279 -0.066,-0.14348 -0.31434,-0.0988 -0.38034,-0.24236 -0.18663,-0.40584 0.0276,-1.01251 -0.12558,-1.44022 -1.11234,-3.10331 -4.06423,-7.11597 -6.20013,-9.39684 -0.87764,-0.93718 -0.45371,0.68327 -1.38906,-0.18516 -0.34912,-0.32415 0.93237,3.79154 -0.48403,-0.52779 -0.074,-0.22566 -2.22118,-0.33566 -2.42139,-0.4632 -2.05876,1.01443 0.25505,-0.27231 -0.14539,-0.52778 -0.20023,-0.12777 0.51696,-0.0487 0.28785,-0.12454 -0.85246,-0.28239 -1.76564,0.52096 -2.61811,0.23858 -0.79674,-0.26389 -2.19035,-1.45151 -2.08273,-2.1575 0.81804,-5.36681 0.33867,6.43525 -0.33866,2.71023 l 1.01596,0.33917 -5.2e-4,-1.69328 -1.69327,3.04841 3.04737,-1.01544 -0.67782,-0.67731 -2.3711,0.33866 -2.3711,0.67731 c -0.0121,-0.002 11.43642,1.30173 8.08913,-2.27584 -2.15043,4.91068 -11.64772,-6.45076 -11.37315,0.91313 0.18873,5.06172 3.99376,-2.52622 -0.92277,-3.11212 -5.44598,-0.64901 -1.80716,1.59974 -1.7756,-1.50071 -0.2207,-0.0377 0.77552,0.77222 0.61634,0.67132 -0.0896,-0.057 -2.98939,3.7608 -4.09485,-2.39212 0.164,8.69361 1.53885,2.16999 1.25247,2.12098 -0.0513,-0.009 -0.53808,0.6413 -0.49316,0.66698 z"
       sodipodi:nodetypes="sccscsccccccccccscssscsssccscccsccscscscsscccssscscccscscscscsccscscsccssscscsscccccccccsscccsss" />
    <path
       style="font-variation-settings:normal;opacity:1;vector-effect:none;fill:#4d4d4d;fill-opacity:1;stroke:#474747;stroke-width:0.865;stroke-linecap:round;stroke-linejoin:round;stroke-miterlimit:4;stroke-dasharray:none;stroke-dashoffset:0;stroke-opacity:1;-inkscape-stroke:none;stop-color:#000000;stop-opacity:1"
       d="m 149.34664,138.17103 c 5.11744,0 -6.02053,0 2.70923,0 1.71615,0 -0.40387,0.10097 1.35462,-0.33865 0.9562,-0.23905 2.09169,0.23905 3.04789,0 2.16236,-0.54059 -1.50918,-0.33865 2.03193,-0.33865 2.24635,0 -0.47893,0.15964 1.01596,-0.33866 0.86073,-0.28691 2.48454,0 3.38654,0 0.22577,0 0.51767,-0.15964 0.67731,0 0.12493,0.12492 -2.17449,2.30818 -2.70923,2.70924 -0.95092,0.71318 -2.07303,1.10835 -3.04789,1.69327 -0.27379,0.16427 -0.40353,0.51304 -0.67731,0.67731 -0.3061,0.18366 -0.71895,0.14064 -1.01597,0.33866 -0.0939,0.0626 0.10097,0.28817 0,0.33865 -0.20193,0.10097 -0.46312,-0.0714 -0.6773,0 -0.4509,0.1503 -0.92025,0.79878 -1.35462,1.01596 -0.20194,0.10097 -0.47538,-0.10097 -0.67731,0 -0.26632,0.13316 -1.19892,0.52161 -1.35462,0.67731 -0.0798,0.0798 0.0798,0.25884 0,0.33866 -0.15964,0.15964 -0.51766,-0.15965 -0.67731,0 -0.0798,0.0798 0,0.22577 0,0.33865"
       id="path8" />
  </g>
</svg>
